<mxfile host="app.diagrams.net" modified="2022-11-04T03:18:53.670Z" agent="5.0 (Windows NT 10.0; Win64; x64) AppleWebKit/537.36 (KHTML, like Gecko) Chrome/106.0.0.0 Safari/537.36" etag="BTYKlhAr4NgftC9SAK2K" version="20.5.1" type="github">
  <diagram id="8Pd-C6mEw3cocx8-Gh-6" name="第 1 页">
    <mxGraphModel dx="1422" dy="754" grid="1" gridSize="10" guides="1" tooltips="1" connect="1" arrows="1" fold="1" page="1" pageScale="1" pageWidth="1920" pageHeight="1200" math="0" shadow="0">
      <root>
        <mxCell id="0" />
        <mxCell id="1" parent="0" />
        <mxCell id="h8VCm31g1LNatusUnyzf-3" style="edgeStyle=orthogonalEdgeStyle;rounded=0;orthogonalLoop=1;jettySize=auto;html=1;entryX=0.5;entryY=0;entryDx=0;entryDy=0;" edge="1" parent="1" source="h8VCm31g1LNatusUnyzf-1" target="h8VCm31g1LNatusUnyzf-2">
          <mxGeometry relative="1" as="geometry" />
        </mxCell>
        <mxCell id="h8VCm31g1LNatusUnyzf-1" value="公众号" style="rounded=1;whiteSpace=wrap;html=1;" vertex="1" parent="1">
          <mxGeometry x="220" y="130" width="120" height="60" as="geometry" />
        </mxCell>
        <mxCell id="h8VCm31g1LNatusUnyzf-6" style="edgeStyle=orthogonalEdgeStyle;rounded=0;orthogonalLoop=1;jettySize=auto;html=1;" edge="1" parent="1" source="h8VCm31g1LNatusUnyzf-2" target="h8VCm31g1LNatusUnyzf-4">
          <mxGeometry relative="1" as="geometry" />
        </mxCell>
        <mxCell id="h8VCm31g1LNatusUnyzf-2" value="菜单" style="rounded=1;whiteSpace=wrap;html=1;" vertex="1" parent="1">
          <mxGeometry x="220" y="280" width="120" height="60" as="geometry" />
        </mxCell>
        <mxCell id="h8VCm31g1LNatusUnyzf-8" style="edgeStyle=orthogonalEdgeStyle;rounded=0;orthogonalLoop=1;jettySize=auto;html=1;" edge="1" parent="1" source="h8VCm31g1LNatusUnyzf-4" target="h8VCm31g1LNatusUnyzf-7">
          <mxGeometry relative="1" as="geometry" />
        </mxCell>
        <mxCell id="h8VCm31g1LNatusUnyzf-4" value="药健康" style="rounded=1;whiteSpace=wrap;html=1;" vertex="1" parent="1">
          <mxGeometry x="220" y="440" width="120" height="60" as="geometry" />
        </mxCell>
        <mxCell id="h8VCm31g1LNatusUnyzf-5" value="openid找到基金险卡信息" style="text;html=1;strokeColor=none;fillColor=none;align=center;verticalAlign=middle;whiteSpace=wrap;rounded=0;" vertex="1" parent="1">
          <mxGeometry x="750" y="460" width="60" height="30" as="geometry" />
        </mxCell>
        <mxCell id="h8VCm31g1LNatusUnyzf-12" style="edgeStyle=orthogonalEdgeStyle;rounded=0;orthogonalLoop=1;jettySize=auto;html=1;" edge="1" parent="1" source="h8VCm31g1LNatusUnyzf-7" target="h8VCm31g1LNatusUnyzf-11">
          <mxGeometry relative="1" as="geometry" />
        </mxCell>
        <mxCell id="h8VCm31g1LNatusUnyzf-7" value="net" style="rounded=1;whiteSpace=wrap;html=1;" vertex="1" parent="1">
          <mxGeometry x="500" y="440" width="120" height="60" as="geometry" />
        </mxCell>
        <mxCell id="h8VCm31g1LNatusUnyzf-9" value="跳转10021首页" style="rounded=1;whiteSpace=wrap;html=1;" vertex="1" parent="1">
          <mxGeometry x="860" y="530" width="120" height="60" as="geometry" />
        </mxCell>
        <mxCell id="h8VCm31g1LNatusUnyzf-13" style="edgeStyle=orthogonalEdgeStyle;rounded=0;orthogonalLoop=1;jettySize=auto;html=1;entryX=0;entryY=0.5;entryDx=0;entryDy=0;" edge="1" parent="1" source="h8VCm31g1LNatusUnyzf-11" target="h8VCm31g1LNatusUnyzf-9">
          <mxGeometry relative="1" as="geometry" />
        </mxCell>
        <mxCell id="h8VCm31g1LNatusUnyzf-15" style="edgeStyle=orthogonalEdgeStyle;rounded=0;orthogonalLoop=1;jettySize=auto;html=1;entryX=-0.017;entryY=0.383;entryDx=0;entryDy=0;entryPerimeter=0;" edge="1" parent="1" source="h8VCm31g1LNatusUnyzf-11" target="h8VCm31g1LNatusUnyzf-14">
          <mxGeometry relative="1" as="geometry">
            <Array as="points">
              <mxPoint x="730" y="413" />
            </Array>
          </mxGeometry>
        </mxCell>
        <mxCell id="h8VCm31g1LNatusUnyzf-11" value="net用户信息" style="rhombus;whiteSpace=wrap;html=1;" vertex="1" parent="1">
          <mxGeometry x="690" y="520" width="80" height="80" as="geometry" />
        </mxCell>
        <mxCell id="h8VCm31g1LNatusUnyzf-14" value="10002首页" style="rounded=1;whiteSpace=wrap;html=1;" vertex="1" parent="1">
          <mxGeometry x="860" y="390" width="120" height="60" as="geometry" />
        </mxCell>
        <mxCell id="h8VCm31g1LNatusUnyzf-17" value="跳商城-商城公众号获取信息" style="rounded=1;whiteSpace=wrap;html=1;" vertex="1" parent="1">
          <mxGeometry x="1090" y="460" width="120" height="60" as="geometry" />
        </mxCell>
        <mxCell id="h8VCm31g1LNatusUnyzf-18" value="直接跳链接，没走联合登录" style="text;html=1;align=center;verticalAlign=middle;resizable=0;points=[];autosize=1;strokeColor=none;fillColor=none;" vertex="1" parent="1">
          <mxGeometry x="1030" y="390" width="170" height="30" as="geometry" />
        </mxCell>
        <mxCell id="h8VCm31g1LNatusUnyzf-19" value="过滤器里登录" style="text;html=1;align=center;verticalAlign=middle;resizable=0;points=[];autosize=1;strokeColor=none;fillColor=none;" vertex="1" parent="1">
          <mxGeometry x="1040" y="335" width="100" height="30" as="geometry" />
        </mxCell>
      </root>
    </mxGraphModel>
  </diagram>
</mxfile>
